# This file uses centimeters as units for non-parametric coordinates.

mtllib PlagueBody.mtl
g default
v 0.328201 3.894790 -0.881829
v 0.279184 3.894790 -0.978029
v 0.202839 3.894790 -1.054374
v 0.106639 3.894790 -1.103391
v -0.000000 3.894790 -1.120281
v -0.106639 3.894790 -1.103391
v -0.202840 3.894790 -1.054374
v -0.279185 3.894790 -0.978029
v -0.328201 3.894790 -0.881829
v -0.345091 3.894790 -0.775190
v -0.328201 3.894790 -0.668551
v -0.279185 3.894790 -0.572350
v -0.202840 3.894790 -0.496005
v -0.106639 3.894790 -0.446989
v -0.000000 3.894790 -0.430099
v 0.106639 3.894790 -0.446989
v 0.202839 3.894790 -0.496005
v 0.279184 3.894790 -0.572350
v 0.328201 3.894790 -0.668551
v 0.345091 3.894790 -0.775190
v 0.354665 4.640622 -0.914017
v 0.301696 4.640622 -1.017974
v 0.219195 4.640622 -1.100475
v 0.115237 4.640622 -1.153444
v -0.000000 4.640622 -1.171696
v -0.115238 4.640622 -1.153444
v -0.219195 4.640622 -1.100475
v -0.301696 4.640622 -1.017974
v -0.354665 4.640622 -0.914017
v -0.372917 4.640622 -0.798780
v -0.354665 4.640622 -0.683542
v -0.301696 4.640622 -0.579585
v -0.219195 4.640622 -0.497084
v -0.115238 4.640622 -0.444115
v -0.000000 4.640622 -0.425863
v 0.115237 4.640622 -0.444115
v 0.219195 4.640622 -0.497084
v 0.301696 4.640622 -0.579585
v 0.354664 4.640622 -0.683542
v 0.372916 4.640622 -0.798780
v 0.211551 5.116077 -0.820014
v 0.179956 5.116076 -0.882022
v 0.130746 5.116076 -0.931233
v 0.068737 5.116076 -0.962828
v -0.000000 5.116076 -0.973715
v -0.068737 5.116076 -0.962828
v -0.130746 5.116076 -0.931233
v -0.179956 5.116076 -0.882022
v -0.211551 5.116076 -0.820014
v -0.222438 5.116076 -0.751277
v -0.211551 5.116076 -0.682539
v -0.179956 5.116076 -0.620531
v -0.130746 5.116076 -0.571320
v -0.068737 5.116076 -0.539725
v -0.000000 5.116076 -0.528838
v 0.068737 5.116076 -0.539725
v 0.130746 5.116076 -0.571320
v 0.179956 5.116076 -0.620531
v 0.211551 5.116076 -0.682539
v 0.222438 5.116076 -0.751277
v 0.211551 5.299885 -0.820014
v 0.179956 5.299883 -0.882022
v -0.000000 5.299883 -0.751277
v 0.130746 5.299883 -0.931233
v 0.068737 5.299883 -0.962828
v -0.000000 5.299883 -0.973715
v -0.068737 5.299883 -0.962828
v -0.130746 5.299883 -0.931233
v -0.179956 5.299883 -0.882022
v -0.211551 5.299883 -0.820014
v -0.222438 5.299883 -0.751277
v -0.211551 5.299883 -0.682539
v -0.179956 5.299883 -0.620531
v -0.130746 5.299883 -0.571320
v -0.068737 5.299883 -0.539725
v -0.000000 5.299883 -0.528838
v 0.068737 5.299883 -0.539725
v 0.130746 5.299883 -0.571320
v 0.179956 5.299883 -0.620531
v 0.211551 5.299883 -0.682539
v 0.222438 5.299883 -0.751277
v 0.354665 4.267707 -0.914017
v 0.301696 4.267707 -1.017974
v 0.219195 4.267707 -1.100475
v 0.115237 4.267707 -1.153444
v -0.000000 4.267707 -1.171696
v -0.115238 4.267707 -1.153444
v -0.219195 4.267707 -1.100475
v -0.301696 4.267707 -1.017974
v -0.354665 4.267707 -0.914017
v -0.372917 4.267707 -0.798780
v -0.354665 4.267707 -0.683542
v -0.301696 4.267707 -0.579585
v -0.219195 4.267707 -0.421228
v -0.115238 4.267707 -0.368259
v -0.000000 4.267707 -0.350007
v 0.115237 4.267707 -0.368259
v 0.219195 4.267707 -0.421228
v 0.301696 4.267707 -0.579585
v 0.354664 4.267707 -0.683542
v 0.372916 4.267707 -0.798780
v 0.328201 2.774960 -0.905419
v 0.279184 2.774960 -1.001619
v 0.202839 2.774960 -1.077964
v 0.106639 2.774960 -1.126981
v -0.000000 2.774960 -1.143871
v -0.106639 2.774960 -1.126981
v -0.202840 2.774960 -1.077964
v -0.279185 2.774960 -1.001619
v -0.328201 2.774960 -0.905419
v -0.345091 2.774960 -0.798780
v -0.328201 2.774960 -0.692141
v -0.279185 2.774960 -0.595940
v -0.202840 2.774960 -0.519595
v -0.106639 2.774960 -0.470579
v -0.000000 2.774960 -0.453689
v 0.106639 2.774960 -0.470579
v 0.202839 2.774960 -0.519595
v 0.279184 2.774960 -0.595940
v 0.328201 2.774960 -0.692141
v 0.345091 2.774960 -0.798780
v 0.272261 3.334875 -0.971423
v 0.286272 3.334875 -0.882960
v 0.272261 3.334875 -0.794497
v 0.231599 3.334875 -0.714693
v 0.168266 3.334875 -0.651361
v 0.088463 3.334875 -0.610699
v -0.000000 3.334875 -0.596688
v -0.088463 3.334875 -0.610699
v -0.168267 3.334875 -0.651361
v -0.231599 3.334875 -0.714693
v -0.272261 3.334875 -0.794497
v -0.286272 3.334875 -0.882960
v -0.272261 3.334875 -0.971423
v -0.231599 3.334875 -1.051226
v -0.168267 3.334875 -1.114559
v -0.088463 3.334875 -1.155221
v -0.000000 3.334875 -1.169232
v 0.088463 3.334875 -1.155221
v 0.168266 3.334875 -1.114559
v 0.231599 3.334875 -1.051226
v 1.010340 0.068769 -1.127059
v 0.859447 0.068769 -1.423204
v 1.062334 0.068769 -0.798780
v 1.010339 0.068769 -0.470500
v 0.859446 0.068769 -0.174355
v 0.624424 0.068769 0.060667
v 0.328279 0.068769 0.211560
v -0.000000 0.068769 0.263555
v -0.328279 0.068769 0.211560
v -0.624424 0.068769 0.060667
v -0.859446 0.068769 -0.174355
v -1.010340 0.068769 -0.470500
v -1.062335 0.068769 -0.798780
v -1.010340 0.068769 -1.127059
v -0.859447 0.068769 -1.423204
v -0.624424 0.068769 -1.658226
v -0.328280 0.068769 -1.809120
v -0.000000 0.068769 -1.861114
v 0.328279 0.068769 -1.809120
v 0.624425 0.068769 -1.658226
vt 0.375000 0.500470
vt 0.387500 0.500470
vt 0.387500 0.688440
vt 0.375000 0.688440
vt 0.400000 0.500470
vt 0.400000 0.688440
vt 0.412500 0.500470
vt 0.412500 0.688440
vt 0.425000 0.500470
vt 0.425000 0.688440
vt 0.437500 0.500470
vt 0.437500 0.688440
vt 0.450000 0.500470
vt 0.450000 0.688440
vt 0.462500 0.500470
vt 0.462500 0.688440
vt 0.475000 0.500470
vt 0.475000 0.688440
vt 0.487500 0.500470
vt 0.487500 0.688440
vt 0.500000 0.500470
vt 0.500000 0.688440
vt 0.512500 0.500470
vt 0.512500 0.688440
vt 0.525000 0.500470
vt 0.525000 0.688440
vt 0.537500 0.500470
vt 0.537500 0.688440
vt 0.550000 0.500470
vt 0.550000 0.688440
vt 0.562500 0.500470
vt 0.562500 0.688440
vt 0.575000 0.500470
vt 0.575000 0.688440
vt 0.587500 0.500470
vt 0.587500 0.688440
vt 0.600000 0.500470
vt 0.600000 0.688440
vt 0.612500 0.500470
vt 0.612500 0.688440
vt 0.625000 0.500470
vt 0.625000 0.688440
vt 0.648603 0.892034
vt 0.626409 0.935591
vt 0.500000 0.837500
vt 0.591841 0.970159
vt 0.548284 0.992353
vt 0.500000 1.000000
vt 0.451716 0.992353
vt 0.408159 0.970159
vt 0.373591 0.935591
vt 0.351397 0.892034
vt 0.343750 0.843750
vt 0.351397 0.795466
vt 0.373591 0.751909
vt 0.408159 0.717341
vt 0.451716 0.695147
vt 0.500000 0.687500
vt 0.548284 0.695147
vt 0.591842 0.717341
vt 0.626409 0.751908
vt 0.648603 0.795466
vt 0.656250 0.843750
vt 0.648603 0.892034
vt 0.626409 0.935591
vt 0.626409 0.935591
vt 0.648603 0.892034
vt 0.591841 0.970159
vt 0.591841 0.970159
vt 0.548284 0.992353
vt 0.548284 0.992353
vt 0.500000 1.000000
vt 0.500000 1.000000
vt 0.451716 0.992353
vt 0.451716 0.992353
vt 0.408159 0.970159
vt 0.408159 0.970159
vt 0.373591 0.935591
vt 0.373591 0.935591
vt 0.351397 0.892034
vt 0.351397 0.892034
vt 0.343750 0.843750
vt 0.343750 0.843750
vt 0.351397 0.795466
vt 0.351397 0.795466
vt 0.373591 0.751909
vt 0.373591 0.751909
vt 0.408159 0.717341
vt 0.408159 0.717341
vt 0.451716 0.695147
vt 0.451716 0.695147
vt 0.500000 0.687500
vt 0.500000 0.687500
vt 0.548284 0.695147
vt 0.548284 0.695147
vt 0.591842 0.717341
vt 0.591842 0.717341
vt 0.626409 0.751908
vt 0.626409 0.751908
vt 0.648603 0.795466
vt 0.648603 0.795466
vt 0.656250 0.843750
vt 0.656250 0.843750
vt 0.375000 0.312500
vt 0.387500 0.312500
vt 0.400000 0.312500
vt 0.412500 0.312500
vt 0.425000 0.312500
vt 0.437500 0.312500
vt 0.450000 0.312500
vt 0.462500 0.312500
vt 0.475000 0.312500
vt 0.487500 0.312500
vt 0.500000 0.312500
vt 0.512500 0.312500
vt 0.525000 0.312500
vt 0.537500 0.312500
vt 0.550000 0.312500
vt 0.562500 0.312500
vt 0.575000 0.312500
vt 0.587500 0.312500
vt 0.600000 0.312500
vt 0.612500 0.312500
vt 0.625000 0.312500
vt 0.626409 0.064408
vt 0.648603 0.107966
vt 0.648603 0.107966
vt 0.626409 0.064408
vt 0.591842 0.029841
vt 0.591842 0.029841
vt 0.548284 0.007647
vt 0.548284 0.007647
vt 0.500000 -0.000000
vt 0.500000 -0.000000
vt 0.451716 0.007647
vt 0.451716 0.007647
vt 0.408159 0.029841
vt 0.408159 0.029841
vt 0.373591 0.064409
vt 0.373591 0.064409
vt 0.351397 0.107966
vt 0.351397 0.107966
vt 0.343750 0.156250
vt 0.343750 0.156250
vt 0.351397 0.204534
vt 0.351397 0.204534
vt 0.373591 0.248091
vt 0.373591 0.248091
vt 0.408159 0.282659
vt 0.408159 0.282659
vt 0.451716 0.304853
vt 0.451716 0.304853
vt 0.500000 0.312500
vt 0.500000 0.312500
vt 0.548284 0.304853
vt 0.548284 0.304853
vt 0.591841 0.282659
vt 0.591841 0.282659
vt 0.626409 0.248091
vt 0.626409 0.248091
vt 0.648603 0.204534
vt 0.648603 0.204534
vt 0.656250 0.156250
vt 0.656250 0.156250
vt 0.648603 0.107966
vt 0.656250 0.156250
vt 0.648603 0.204534
vt 0.626409 0.248091
vt 0.591841 0.282659
vt 0.548284 0.304853
vt 0.500000 0.312500
vt 0.451716 0.304853
vt 0.408159 0.282659
vt 0.373591 0.248091
vt 0.351397 0.204534
vt 0.343750 0.156250
vt 0.351397 0.107966
vt 0.373591 0.064409
vt 0.408159 0.029841
vt 0.451716 0.007647
vt 0.500000 -0.000000
vt 0.548284 0.007647
vt 0.591842 0.029841
vt 0.626409 0.064408
vt 0.626409 0.064408
vt 0.648603 0.107966
vt 0.656250 0.156250
vt 0.648603 0.204534
vt 0.626409 0.248091
vt 0.591841 0.282659
vt 0.548284 0.304853
vt 0.500000 0.312500
vt 0.451716 0.304853
vt 0.408159 0.282659
vt 0.373591 0.248091
vt 0.351397 0.204534
vt 0.343750 0.156250
vt 0.351397 0.107966
vt 0.373591 0.064409
vt 0.408159 0.029841
vt 0.451716 0.007647
vt 0.500000 -0.000000
vt 0.548284 0.007647
vt 0.591842 0.029841
vn 0.949135 -0.046094 -0.311476
vn 0.806344 -0.054572 -0.588924
vn 0.793102 0.183080 -0.580923
vn 0.935771 0.170236 -0.308792
vn 0.585217 -0.061259 -0.808560
vn 0.574497 0.193141 -0.795393
vn 0.307449 -0.065534 -0.949305
vn 0.301438 0.199539 -0.932373
vn -0.000000 -0.067003 -0.997753
vn 0.000000 0.201732 -0.979441
vn -0.307449 -0.065534 -0.949305
vn -0.301438 0.199538 -0.932373
vn -0.585217 -0.061259 -0.808559
vn -0.574497 0.193141 -0.795393
vn -0.806344 -0.054572 -0.588924
vn -0.793102 0.183080 -0.580922
vn -0.949135 -0.046094 -0.311477
vn -0.935771 0.170236 -0.308793
vn -0.999324 -0.036631 -0.003087
vn -0.987780 0.155780 -0.004790
vn -0.951611 -0.027102 0.306108
vn -0.942953 0.141098 0.301548
vn -0.857099 -0.018901 0.514804
vn -0.829129 0.136330 0.542181
vn -0.667798 -0.010840 0.744264
vn -0.638875 0.167618 0.750828
vn -0.303967 -0.003165 0.952677
vn -0.306840 0.202851 0.929893
vn 0.000000 -0.001592 0.999999
vn 0.000000 0.205443 0.978669
vn 0.303967 -0.003165 0.952677
vn 0.306840 0.202851 0.929893
vn 0.667798 -0.010840 0.744264
vn 0.638875 0.167618 0.750828
vn 0.857099 -0.018901 0.514805
vn 0.829129 0.136330 0.542181
vn 0.951611 -0.027102 0.306108
vn 0.942953 0.141098 0.301548
vn 0.999324 -0.036631 -0.003086
vn 0.987780 0.155780 -0.004789
vn -0.000008 1.000000 -0.000000
vn -0.000008 1.000000 -0.000008
vn -0.000001 1.000000 0.000000
vn 0.000000 1.000000 0.000000
vn 0.000000 1.000000 0.000000
vn 0.000000 1.000000 0.000000
vn 0.000000 1.000000 0.000000
vn 0.000000 1.000000 0.000000
vn 0.000000 1.000000 0.000000
vn 0.000000 1.000000 0.000000
vn 0.000000 1.000000 0.000000
vn 0.000000 1.000000 0.000000
vn 0.000000 1.000000 0.000000
vn 0.000000 1.000000 0.000000
vn 0.000000 1.000000 0.000000
vn 0.000000 1.000000 0.000000
vn 0.000000 1.000000 0.000000
vn 0.000000 1.000000 0.000000
vn 0.000000 1.000000 -0.000004
vn 0.000000 1.000000 0.000004
vn 0.000000 1.000000 0.000015
vn 0.779600 0.281074 -0.559662
vn 0.919990 0.261375 -0.292065
vn 0.564513 0.296533 -0.770320
vn 0.296099 0.306373 -0.904688
vn 0.000000 0.309748 -0.950819
vn -0.296099 0.306373 -0.904688
vn -0.564513 0.296533 -0.770320
vn -0.779600 0.281073 -0.559662
vn -0.919989 0.261376 -0.292066
vn -0.970923 0.239291 0.006970
vn -0.926296 0.216978 0.308053
vn -0.789785 0.196686 0.580994
vn -0.574674 0.180494 0.798230
vn -0.302367 0.170065 0.937898
vn 0.000000 0.166466 0.986047
vn 0.302367 0.170065 0.937898
vn 0.574674 0.180494 0.798230
vn 0.789785 0.196686 0.580994
vn 0.926296 0.216978 0.308053
vn 0.970923 0.239291 0.006970
vn 0.809018 0.000000 -0.587784
vn 0.951057 0.000000 -0.309015
vn 0.587784 0.000000 -0.809018
vn 0.309016 0.000000 -0.951057
vn 0.000000 0.000000 -1.000000
vn -0.309016 0.000000 -0.951057
vn -0.587785 0.000000 -0.809017
vn -0.809017 0.000000 -0.587785
vn -0.951057 0.000000 -0.309016
vn -1.000000 0.000000 0.000000
vn -0.951057 0.000000 0.309017
vn -0.809017 0.000000 0.587785
vn -0.587784 0.000000 0.809018
vn -0.309017 0.000000 0.951057
vn 0.000000 0.000000 1.000000
vn 0.309017 0.000000 0.951057
vn 0.587784 0.000000 0.809018
vn 0.809017 0.000000 0.587785
vn 0.951057 0.000000 0.309016
vn 1.000000 0.000000 -0.000001
vn 0.952708 -0.068233 -0.296129
vn 0.814533 -0.045079 -0.578363
vn 0.593947 -0.026349 -0.804073
vn 0.312926 -0.014168 -0.949672
vn -0.000000 -0.009944 -0.999951
vn -0.312926 -0.014168 -0.949672
vn -0.593947 -0.026349 -0.804073
vn -0.814533 -0.045079 -0.578362
vn -0.952707 -0.068233 -0.296130
vn -0.995550 -0.093280 0.013399
vn -0.940450 -0.117646 0.318926
vn -0.818334 -0.149615 0.554928
vn -0.621081 -0.202048 0.757255
vn -0.298281 -0.245007 0.922497
vn 0.000000 -0.252405 0.967622
vn 0.298282 -0.245007 0.922497
vn 0.621081 -0.202048 0.757255
vn 0.818334 -0.149615 0.554928
vn 0.940450 -0.117646 0.318925
vn 0.995550 -0.093280 0.013399
vn 0.800816 0.012849 -0.598772
vn 0.945973 0.007178 -0.324166
vn 0.923409 0.240857 -0.298836
vn 0.786425 0.237576 -0.570170
vn 0.579560 0.017229 -0.814747
vn 0.571907 0.234930 -0.785958
vn 0.303921 0.019983 -0.952488
vn 0.300851 0.233211 -0.924717
vn -0.000000 0.020922 -0.999781
vn 0.000000 0.232615 -0.972569
vn -0.303921 0.019983 -0.952488
vn -0.300851 0.233211 -0.924717
vn -0.579561 0.017229 -0.814747
vn -0.571908 0.234930 -0.785958
vn -0.800817 0.012849 -0.598772
vn -0.786425 0.237576 -0.570170
vn -0.945973 0.007178 -0.324167
vn -0.923409 0.240857 -0.298838
vn -0.999861 0.000694 -0.016633
vn -0.969667 0.244425 0.001191
vn -0.955759 -0.005986 0.294091
vn -0.921016 0.247921 0.300441
vn -0.816631 -0.012171 0.577032
vn -0.782555 0.251014 0.569737
vn -0.595351 -0.017179 0.803282
vn -0.568039 0.253429 0.783011
vn -0.313668 -0.020437 0.949313
vn -0.298461 0.254961 0.919737
vn 0.000000 -0.021567 0.999767
vn 0.000000 0.255486 0.966813
vn 0.313668 -0.020437 0.949313
vn 0.298461 0.254961 0.919737
vn 0.595351 -0.017179 0.803282
vn 0.568039 0.253429 0.783011
vn 0.816631 -0.012171 0.577031
vn 0.782555 0.251015 0.569737
vn 0.955759 -0.005986 0.294090
vn 0.921016 0.247921 0.300440
vn 0.999861 0.000694 -0.016632
vn 0.969667 0.244425 0.001192
vn 0.000000 -1.000000 -0.000000
vn 0.000000 -1.000000 -0.000000
vn 0.000000 -1.000000 -0.000000
vn 0.000000 -1.000000 -0.000000
vn 0.000000 -1.000000 -0.000000
vn 0.000000 -1.000000 -0.000000
vn 0.000000 -1.000000 -0.000000
vn 0.000000 -1.000000 -0.000000
vn 0.000000 -1.000000 -0.000000
vn 0.000000 -1.000000 -0.000000
vn 0.000000 -1.000000 -0.000000
vn 0.000000 -1.000000 -0.000000
vn 0.000000 -1.000000 -0.000000
vn 0.000000 -1.000000 -0.000000
vn 0.000000 -1.000000 -0.000000
vn 0.000000 -1.000000 -0.000000
vn 0.000000 -1.000000 -0.000000
vn 0.000000 -1.000000 -0.000000
vn 0.000000 -1.000000 -0.000000
vn 0.000000 -1.000000 -0.000000
vn 0.919316 0.256193 -0.298703
vn 0.782017 0.256193 -0.568168
vn 0.966626 0.256193 0.000001
vn 0.919316 0.256192 0.298704
vn 0.782017 0.256193 0.568168
vn 0.568168 0.256193 0.782017
vn 0.298704 0.256192 0.919316
vn 0.000000 0.256192 0.966626
vn -0.298704 0.256192 0.919316
vn -0.568168 0.256192 0.782017
vn -0.782017 0.256192 0.568168
vn -0.919316 0.256192 0.298704
vn -0.966626 0.256193 0.000000
vn -0.919316 0.256192 -0.298704
vn -0.782017 0.256192 -0.568168
vn -0.568169 0.256193 -0.782016
vn -0.298704 0.256193 -0.919316
vn 0.000000 0.256193 -0.966626
vn 0.298704 0.256193 -0.919316
vn 0.568168 0.256193 -0.782017
s 1
g polySurface3 pCylinder6
usemtl initialShadingGroup
f 82/1/1 83/2/2 22/3/3 21/4/4
f 83/2/2 84/5/5 23/6/6 22/3/3
f 84/5/5 85/7/7 24/8/8 23/6/6
f 85/7/7 86/9/9 25/10/10 24/8/8
f 86/9/9 87/11/11 26/12/12 25/10/10
f 87/11/11 88/13/13 27/14/14 26/12/12
f 88/13/13 89/15/15 28/16/16 27/14/14
f 89/15/15 90/17/17 29/18/18 28/16/16
f 90/17/17 91/19/19 30/20/20 29/18/18
f 91/19/19 92/21/21 31/22/22 30/20/20
f 92/21/21 93/23/23 32/24/24 31/22/22
f 93/23/23 94/25/25 33/26/26 32/24/24
f 94/25/25 95/27/27 34/28/28 33/26/26
f 95/27/27 96/29/29 35/30/30 34/28/28
f 96/29/29 97/31/31 36/32/32 35/30/30
f 97/31/31 98/33/33 37/34/34 36/32/32
f 98/33/33 99/35/35 38/36/36 37/34/34
f 99/35/35 100/37/37 39/38/38 38/36/36
f 100/37/37 101/39/39 40/40/40 39/38/38
f 101/39/39 82/41/1 21/42/4 40/40/40
s 2
f 61/43/41 62/44/42 63/45/43
f 62/44/42 64/46/44 63/45/43
f 64/46/44 65/47/45 63/45/43
f 65/47/45 66/48/46 63/45/43
f 66/48/46 67/49/47 63/45/43
f 67/49/47 68/50/48 63/45/43
f 68/50/48 69/51/49 63/45/43
f 69/51/49 70/52/50 63/45/43
f 70/52/50 71/53/51 63/45/43
f 71/53/51 72/54/52 63/45/43
f 72/54/52 73/55/53 63/45/43
f 73/55/53 74/56/54 63/45/43
f 74/56/54 75/57/55 63/45/43
f 75/57/55 76/58/56 63/45/43
f 76/58/56 77/59/57 63/45/43
f 77/59/57 78/60/58 63/45/43
f 78/60/58 79/61/59 63/45/43
f 79/61/59 80/62/60 63/45/43
f 80/62/60 81/63/61 63/45/43
f 81/63/61 61/43/41 63/45/43
s 1
f 21/64/4 22/65/3 42/66/62 41/67/63
f 22/65/3 23/68/6 43/69/64 42/66/62
f 23/68/6 24/70/8 44/71/65 43/69/64
f 24/70/8 25/72/10 45/73/66 44/71/65
f 25/72/10 26/74/12 46/75/67 45/73/66
f 26/74/12 27/76/14 47/77/68 46/75/67
f 27/76/14 28/78/16 48/79/69 47/77/68
f 28/78/16 29/80/18 49/81/70 48/79/69
f 29/80/18 30/82/20 50/83/71 49/81/70
f 30/82/20 31/84/22 51/85/72 50/83/71
f 31/84/22 32/86/24 52/87/73 51/85/72
f 32/86/24 33/88/26 53/89/74 52/87/73
f 33/88/26 34/90/28 54/91/75 53/89/74
f 34/90/28 35/92/30 55/93/76 54/91/75
f 35/92/30 36/94/32 56/95/77 55/93/76
f 36/94/32 37/96/34 57/97/78 56/95/77
f 37/96/34 38/98/36 58/99/79 57/97/78
f 38/98/36 39/100/38 59/101/80 58/99/79
f 39/100/38 40/102/40 60/103/81 59/101/80
f 40/102/40 21/64/4 41/67/63 60/103/81
f 41/67/63 42/66/62 62/44/82 61/43/83
f 42/66/62 43/69/64 64/46/84 62/44/82
f 43/69/64 44/71/65 65/47/85 64/46/84
f 44/71/65 45/73/66 66/48/86 65/47/85
f 45/73/66 46/75/67 67/49/87 66/48/86
f 46/75/67 47/77/68 68/50/88 67/49/87
f 47/77/68 48/79/69 69/51/89 68/50/88
f 48/79/69 49/81/70 70/52/90 69/51/89
f 49/81/70 50/83/71 71/53/91 70/52/90
f 50/83/71 51/85/72 72/54/92 71/53/91
f 51/85/72 52/87/73 73/55/93 72/54/92
f 52/87/73 53/89/74 74/56/94 73/55/93
f 53/89/74 54/91/75 75/57/95 74/56/94
f 54/91/75 55/93/76 76/58/96 75/57/95
f 55/93/76 56/95/77 77/59/97 76/58/96
f 56/95/77 57/97/78 78/60/98 77/59/97
f 57/97/78 58/99/79 79/61/99 78/60/98
f 58/99/79 59/101/80 80/62/100 79/61/99
f 59/101/80 60/103/81 81/63/101 80/62/100
f 60/103/81 41/67/63 61/43/83 81/63/101
f 1/104/102 2/105/103 83/2/2 82/1/1
f 2/105/103 3/106/104 84/5/5 83/2/2
f 3/106/104 4/107/105 85/7/7 84/5/5
f 4/107/105 5/108/106 86/9/9 85/7/7
f 5/108/106 6/109/107 87/11/11 86/9/9
f 6/109/107 7/110/108 88/13/13 87/11/11
f 7/110/108 8/111/109 89/15/15 88/13/13
f 8/111/109 9/112/110 90/17/17 89/15/15
f 9/112/110 10/113/111 91/19/19 90/17/17
f 10/113/111 11/114/112 92/21/21 91/19/19
f 11/114/112 12/115/113 93/23/23 92/21/21
f 12/115/113 13/116/114 94/25/25 93/23/23
f 13/116/114 14/117/115 95/27/27 94/25/25
f 14/117/115 15/118/116 96/29/29 95/27/27
f 15/118/116 16/119/117 97/31/31 96/29/29
f 16/119/117 17/120/118 98/33/33 97/31/31
f 17/120/118 18/121/119 99/35/35 98/33/33
f 18/121/119 19/122/120 100/37/37 99/35/35
f 19/122/120 20/123/121 101/39/39 100/37/37
f 20/123/121 1/124/102 82/41/1 101/39/39
f 141/125/122 122/126/123 102/127/124 103/128/125
f 140/129/126 141/125/122 103/128/125 104/130/127
f 139/131/128 140/129/126 104/130/127 105/132/129
f 138/133/130 139/131/128 105/132/129 106/134/131
f 137/135/132 138/133/130 106/134/131 107/136/133
f 136/137/134 137/135/132 107/136/133 108/138/135
f 135/139/136 136/137/134 108/138/135 109/140/137
f 134/141/138 135/139/136 109/140/137 110/142/139
f 133/143/140 134/141/138 110/142/139 111/144/141
f 132/145/142 133/143/140 111/144/141 112/146/143
f 131/147/144 132/145/142 112/146/143 113/148/145
f 130/149/146 131/147/144 113/148/145 114/150/147
f 129/151/148 130/149/146 114/150/147 115/152/149
f 128/153/150 129/151/148 115/152/149 116/154/151
f 127/155/152 128/153/150 116/154/151 117/156/153
f 126/157/154 127/155/152 117/156/153 118/158/155
f 125/159/156 126/157/154 118/158/155 119/160/157
f 124/161/158 125/159/156 119/160/157 120/162/159
f 123/163/160 124/161/158 120/162/159 121/164/161
f 122/126/123 123/163/160 121/164/161 102/127/124
f 1/165/102 20/166/121 123/163/160 122/126/123
f 20/166/121 19/167/120 124/161/158 123/163/160
f 19/167/120 18/168/119 125/159/156 124/161/158
f 18/168/119 17/169/118 126/157/154 125/159/156
f 17/169/118 16/170/117 127/155/152 126/157/154
f 16/170/117 15/171/116 128/153/150 127/155/152
f 15/171/116 14/172/115 129/151/148 128/153/150
f 14/172/115 13/173/114 130/149/146 129/151/148
f 13/173/114 12/174/113 131/147/144 130/149/146
f 12/174/113 11/175/112 132/145/142 131/147/144
f 11/175/112 10/176/111 133/143/140 132/145/142
f 10/176/111 9/177/110 134/141/138 133/143/140
f 9/177/110 8/178/109 135/139/136 134/141/138
f 8/178/109 7/179/108 136/137/134 135/139/136
f 7/179/108 6/180/107 137/135/132 136/137/134
f 6/180/107 5/181/106 138/133/130 137/135/132
f 5/181/106 4/182/105 139/131/128 138/133/130
f 4/182/105 3/183/104 140/129/126 139/131/128
f 3/183/104 2/184/103 141/125/122 140/129/126
f 2/184/103 1/165/102 122/126/123 141/125/122
s off
f 143/185/162 142/186/163 144/187/164 145/188/165 146/189/166 147/190/167 148/191/168 149/192/169 150/193/170 151/194/171 152/195/172 153/196/173 154/197/174 155/198/175 156/199/176 157/200/177 158/201/178 159/202/179 160/203/180 161/204/181
s 1
f 103/128/125 102/127/124 142/186/182 143/185/183
f 102/127/124 121/164/161 144/187/184 142/186/182
f 121/164/161 120/162/159 145/188/185 144/187/184
f 120/162/159 119/160/157 146/189/186 145/188/185
f 119/160/157 118/158/155 147/190/187 146/189/186
f 118/158/155 117/156/153 148/191/188 147/190/187
f 117/156/153 116/154/151 149/192/189 148/191/188
f 116/154/151 115/152/149 150/193/190 149/192/189
f 115/152/149 114/150/147 151/194/191 150/193/190
f 114/150/147 113/148/145 152/195/192 151/194/191
f 113/148/145 112/146/143 153/196/193 152/195/192
f 112/146/143 111/144/141 154/197/194 153/196/193
f 111/144/141 110/142/139 155/198/195 154/197/194
f 110/142/139 109/140/137 156/199/196 155/198/195
f 109/140/137 108/138/135 157/200/197 156/199/196
f 108/138/135 107/136/133 158/201/198 157/200/197
f 107/136/133 106/134/131 159/202/199 158/201/198
f 106/134/131 105/132/129 160/203/200 159/202/199
f 105/132/129 104/130/127 161/204/201 160/203/200
f 104/130/127 103/128/125 143/185/183 161/204/201
