# This file uses centimeters as units for non-parametric coordinates.

mtllib Plant.mtl
g default
v -4.728523 2.726223 8.934918
v -4.067526 2.726223 8.934919
v -4.728523 2.726223 8.273923
v -4.067526 2.726223 8.273921
v -4.711920 5.828185 8.918315
v -4.084131 5.828185 8.918315
v -4.084131 5.828185 8.290526
v -4.711920 5.828185 8.290526
v -4.965933 2.811326 8.829479
v -4.799758 2.751760 9.006157
v -4.623084 2.811326 9.172323
v -4.865510 2.811326 9.071906
v -5.090076 3.030846 8.953633
v -4.989659 3.030846 9.196059
v -4.747234 3.030846 9.296476
v -4.048811 3.030846 9.296476
v -3.806385 3.030846 9.196059
v -3.705969 3.030846 8.953633
v -3.830122 2.811326 8.829480
v -3.930537 2.811326 9.071906
v -4.172968 2.811326 9.172323
v -3.996287 2.751759 9.006157
v -4.747234 3.030846 7.912365
v -4.989659 3.030846 8.012781
v -5.090076 3.030846 8.255207
v -4.965933 2.811326 8.379362
v -4.865510 2.811326 8.136934
v -4.623084 2.811326 8.036518
v -4.799758 2.751760 8.202684
v -3.830122 2.811326 8.379360
v -3.996287 2.751759 8.202684
v -4.172968 2.811326 8.036518
v -3.930537 2.811326 8.136934
v -3.705969 3.030846 8.255207
v -3.806385 3.030846 8.012781
v -4.048811 3.030846 7.912365
v -4.725190 5.517214 9.274428
v -4.967616 5.517214 9.174011
v -5.068039 5.517214 8.931585
v -4.949208 5.740537 8.812766
v -4.848792 5.740537 9.055192
v -4.606371 5.740537 9.155608
v -4.783357 5.801799 8.989750
v -3.846835 5.740537 8.812765
v -4.012693 5.801799 8.989750
v -4.189680 5.740537 9.155608
v -3.947251 5.740537 9.055192
v -3.728016 5.517214 8.931585
v -3.828431 5.517214 9.174011
v -4.070862 5.517214 9.274428
v -4.189680 5.740537 8.053232
v -4.012691 5.801799 8.219091
v -3.846835 5.740537 8.396077
v -3.947250 5.740537 8.153650
v -4.070862 5.517214 7.934413
v -3.828431 5.517214 8.034828
v -3.728016 5.517214 8.277255
v -4.949208 5.740537 8.396075
v -4.783357 5.801799 8.219091
v -4.606371 5.740537 8.053232
v -4.848792 5.740537 8.153649
v -5.068039 5.517214 8.277255
v -4.967616 5.517214 8.034828
v -4.725190 5.517214 7.934413
v -3.872231 4.056383 9.473055
v -3.629805 4.056383 9.372640
v -3.529389 4.056383 9.130213
v -5.266663 4.056383 9.130213
v -5.166240 4.056383 9.372640
v -4.923814 4.056383 9.473055
v -3.529389 4.056383 8.078628
v -3.629805 4.056383 7.836201
v -3.872231 4.056383 7.735785
v -4.923814 4.056383 7.735785
v -5.166240 4.056383 7.836201
v -5.266663 4.056383 8.078628
v -4.197862 2.733176 8.404257
v -4.598186 2.733176 8.404258
v -4.197862 2.733176 8.804584
v -4.598186 2.733176 8.804582
vt 0.437494 0.312494
vt 0.435410 0.810410
vt 0.549538 1.000000
vt 0.435410 0.939590
vt 0.375000 0.924537
vt 0.564591 0.939591
vt 0.564591 0.810409
vt 0.625000 0.825463
vt 0.562507 0.312494
vt 0.437494 0.437506
vt 0.562507 0.437506
vt 0.450462 0.000000
vt 0.700462 0.000000
vt 0.549538 0.000000
vt 0.200463 0.000000
vt 0.450463 0.750000
vt 0.549538 0.750000
vt 0.375000 0.327752
vt 0.452751 0.250000
vt 0.547250 0.250000
vt 0.625000 0.422249
vt 0.452751 0.500000
vt 0.563076 0.057253
vt 0.436925 0.692747
vt 0.438962 0.250000
vt 0.436925 0.057253
vt 0.575664 0.250000
vt 0.424337 0.500000
vt 0.563076 0.692747
vt 0.686925 0.057253
vt 0.825664 0.250000
vt 0.186925 0.057253
vt 0.325664 0.250000
vt 0.424336 0.250000
vt 0.561038 0.250000
vt 0.625000 0.299336
vt 0.625000 0.436038
vt 0.575664 0.500000
vt 0.438962 0.500000
vt 0.375000 0.450664
vt 0.375000 0.313962
vt 0.299537 0.000000
vt 0.313075 0.057253
vt 0.799537 0.000000
vt 0.813075 0.057253
vt 0.625000 0.327751
vt 0.625000 0.313962
vt 0.547250 0.500000
vt 0.561038 0.500000
vt 0.375000 0.422250
vt 0.375000 0.436038
vt 0.450463 1.000000
vt 0.417283 0.957718
vt 0.625000 0.924538
vt 0.582718 0.957718
vt 0.375000 0.825463
vt 0.417283 0.792282
vt 0.582718 0.792282
vt 0.418681 0.293681
vt 0.581320 0.293680
vt 0.581320 0.456319
vt 0.418681 0.456319
vt 0.674336 0.250000
vt 0.174336 0.250000
vt 0.375000 0.299336
vt 0.625000 0.450664
vt 0.375000 1.000000
vt 0.375000 0.000000
vt 0.375000 0.057253
vt 0.625000 0.057253
vt 0.625000 1.000000
vt 0.625000 0.000000
vt 0.125000 0.057253
vt 0.375000 0.692747
vt 0.375000 0.750000
vt 0.125000 0.000000
vt 0.625000 0.750000
vt 0.875000 0.000000
vt 0.625000 0.692747
vt 0.875000 0.057253
vt 0.375000 0.250000
vt 0.375000 0.250000
vt 0.625000 0.250000
vt 0.625000 0.250000
vt 0.625000 0.500000
vt 0.625000 0.500000
vt 0.375000 0.500000
vt 0.375000 0.500000
vt 0.625000 0.250000
vt 0.375000 0.250000
vt 0.625000 0.500000
vt 0.875000 0.250000
vt 0.375000 0.500000
vt 0.125000 0.250000
vt 0.435410 0.810410
vt 0.564591 0.810409
vt 0.564591 0.939591
vt 0.435410 0.939590
vn -0.173742 -0.969344 -0.173738
vn -0.189969 -0.963235 -0.189973
vn -0.039079 -0.775374 -0.630292
vn 0.039078 -0.775374 -0.630292
vn 0.189974 -0.963235 -0.189971
vn 0.173741 -0.969344 -0.173742
vn -0.096740 0.990597 0.096742
vn -0.196111 0.960772 0.196108
vn -0.042274 0.765550 0.641986
vn 0.042274 0.765550 0.641986
vn 0.196107 0.960773 0.196105
vn 0.096739 0.990597 0.096741
vn 0.096739 0.990597 -0.096742
vn -0.096740 0.990597 -0.096742
vn -0.173742 -0.969344 0.173738
vn -0.189969 -0.963235 0.189973
vn -0.630298 -0.775369 0.039080
vn -0.630298 -0.775369 -0.039080
vn 0.641984 0.765552 0.042273
vn 0.641984 0.765552 -0.042272
vn 0.196109 0.960773 -0.196103
vn 0.042273 0.765551 -0.641985
vn -0.042273 0.765551 -0.641985
vn -0.196110 0.960772 -0.196107
vn -0.039079 -0.775374 0.630292
vn 0.173741 -0.969344 0.173742
vn 0.189974 -0.963235 0.189971
vn 0.039078 -0.775374 0.630292
vn 0.630291 -0.775374 0.039078
vn 0.630292 -0.775374 -0.039078
vn -0.641979 0.765556 0.042275
vn -0.641979 0.765555 -0.042275
vn -0.535708 -0.652710 0.535711
vn -0.885836 -0.283994 0.366937
vn -0.970185 -0.227577 0.083364
vn -0.083361 -0.227574 0.970186
vn -0.366926 -0.283994 0.885840
vn 0.970186 -0.227574 0.083361
vn 0.885840 -0.283994 0.366925
vn 0.535705 -0.652716 0.535707
vn 0.366926 -0.283995 0.885840
vn 0.083361 -0.227574 0.970186
vn -0.970185 -0.227577 -0.083364
vn -0.885836 -0.283994 -0.366937
vn -0.535708 -0.652710 -0.535711
vn -0.366927 -0.283995 -0.885840
vn -0.083361 -0.227574 -0.970186
vn 0.535705 -0.652716 -0.535707
vn 0.885840 -0.283994 -0.366925
vn 0.970186 -0.227574 -0.083361
vn 0.083361 -0.227575 -0.970186
vn 0.366927 -0.283996 -0.885839
vn -0.979958 0.179826 0.085701
vn -0.899970 0.225993 0.372802
vn -0.548149 0.631712 0.548154
vn -0.372783 0.225989 0.899979
vn -0.085697 0.179825 0.979959
vn 0.548151 0.631708 0.548156
vn 0.899980 0.225989 0.372780
vn 0.979959 0.179824 0.085696
vn 0.085696 0.179825 0.979959
vn 0.372779 0.225990 0.899980
vn 0.548153 0.631708 -0.548154
vn 0.372778 0.225990 -0.899980
vn 0.085695 0.179826 -0.979959
vn 0.979959 0.179824 -0.085696
vn 0.899980 0.225988 -0.372779
vn -0.548149 0.631713 -0.548153
vn -0.899970 0.225993 -0.372801
vn -0.979958 0.179827 -0.085701
vn -0.085696 0.179825 -0.979959
vn -0.372782 0.225989 -0.899979
vn 0.106380 0.009849 0.994277
vn -0.106380 0.009848 0.994277
vn -0.106379 0.009848 -0.994277
vn 0.106380 0.009849 -0.994277
vn 0.994277 0.009848 -0.106379
vn 0.994277 0.009848 0.106379
vn -0.994276 0.009845 0.106385
vn -0.994276 0.009845 -0.106385
vn -0.923792 0.013244 0.382666
vn -0.382649 0.013246 0.923799
vn 0.382647 0.013247 0.923800
vn 0.923800 0.013246 0.382647
vn -0.382649 0.013246 -0.923799
vn -0.923792 0.013245 -0.382666
vn 0.923800 0.013246 -0.382647
vn 0.382647 0.013247 -0.923800
vn 0.000000 -0.998580 0.053270
vn 0.000000 -0.998580 0.053270
vn 0.000000 -0.998580 0.053270
vn 0.000000 -0.998580 0.053270
vn -0.053270 -0.998580 0.000000
vn -0.053270 -0.998580 0.000000
vn -0.053270 -0.998580 0.000000
vn -0.053270 -0.998580 0.000000
vn 0.000000 -0.998580 -0.053270
vn 0.000000 -0.998580 -0.053270
vn 0.000000 -0.998580 -0.053270
vn 0.000000 -0.998580 -0.053270
vn 0.053270 -0.998580 0.000000
vn 0.053270 -0.998580 0.000000
vn 0.053270 -0.998580 0.000000
vn 0.053270 -0.998580 0.000000
vn 0.000000 -1.000000 0.000000
vn 0.000000 -1.000000 0.000000
vn 0.000000 -1.000000 0.000000
vn 0.000000 -1.000000 0.000000
s 1
g pCube30
usemtl initialShadingGroup
f 3/2/1 29/57/2 28/16/3 32/17/4 31/58/5 4/7/6
f 5/1/7 43/59/8 42/19/9 46/20/10 45/60/11 6/9/12
f 5/1/7 6/9/12 7/11/13 8/10/14
f 1/4/15 10/53/16 9/5/17 26/56/18 29/57/2 3/2/1
f 6/9/12 45/60/11 44/46/19 53/21/20 52/61/21 7/11/13
f 7/11/13 52/61/21 51/48/22 60/22/23 59/62/24 8/10/14
f 11/52/25 10/53/16 1/4/15 2/6/26 22/55/27 21/3/28
f 19/54/29 22/55/27 2/6/26 4/7/6 31/58/5 30/8/30
f 40/18/31 43/59/8 5/1/7 8/10/14 59/62/24 58/50/32
f 9/42/17 12/68/33 14/69/34 13/43/35
f 12/68/33 11/12/25 15/26/36 14/69/37
f 18/30/38 17/70/39 20/72/40 19/13/29
f 17/70/41 16/23/42 21/14/28 20/72/40
f 25/32/43 24/73/44 27/76/45 26/15/18
f 24/74/46 23/24/47 28/16/3 27/75/45
f 30/44/30 33/78/48 35/80/49 34/45/50
f 33/77/48 32/17/4 36/29/51 35/79/52
f 39/41/53 38/81/54 41/82/55 40/18/31
f 38/81/56 37/25/57 42/19/9 41/82/55
f 44/46/19 47/83/58 49/84/59 48/47/60
f 47/83/58 46/20/10 50/35/61 49/84/62
f 51/48/22 54/85/63 56/86/64 55/49/65
f 54/85/63 53/21/20 57/37/66 56/86/67
f 58/50/32 61/87/68 63/88/69 62/51/70
f 61/87/68 60/22/23 64/39/71 63/88/72
f 15/26/36 11/12/25 21/14/28 16/23/42
f 28/16/3 23/24/47 36/29/51 32/17/4
f 42/19/9 37/25/57 50/35/61 46/20/10
f 15/26/36 16/23/42 65/27/73 70/34/74
f 74/28/75 73/38/76 36/29/51 23/24/47
f 18/30/38 34/45/50 71/31/77 67/63/78
f 25/32/43 13/43/35 68/33/79 76/64/80
f 70/34/74 65/27/73 50/35/61 37/25/57
f 67/36/78 71/66/77 57/37/66 48/47/60
f 73/38/76 74/28/75 64/39/71 55/49/65
f 76/40/80 68/65/79 39/41/53 62/51/70
f 9/42/17 13/43/35 25/32/43 26/15/18
f 18/30/38 19/13/29 30/44/30 34/45/50
f 44/46/19 48/47/60 57/37/66 53/21/20
f 51/48/22 55/49/65 64/39/71 60/22/23
f 39/41/53 40/18/31 58/50/32 62/51/70
f 10/53/16 11/52/25 12/67/33
f 10/53/16 12/67/33 9/5/17
f 22/55/27 19/54/29 20/71/40
f 22/55/27 20/71/40 21/3/28
f 29/57/2 26/56/18 27/75/45
f 29/57/2 27/75/45 28/16/3
f 31/58/5 32/17/4 33/77/48
f 31/58/5 33/77/48 30/8/30
f 43/59/8 40/18/31 41/82/55
f 43/59/8 41/82/55 42/19/9
f 45/60/11 46/20/10 47/83/58
f 45/60/11 47/83/58 44/46/19
f 52/61/21 53/21/20 54/85/63
f 52/61/21 54/85/63 51/48/22
f 59/62/24 60/22/23 61/87/68
f 59/62/24 61/87/68 58/50/32
f 13/43/35 14/69/34 69/90/81 68/33/79
f 14/69/37 15/26/36 70/34/74 69/90/82
f 16/23/42 17/70/41 66/89/83 65/27/73
f 17/70/39 18/30/38 67/63/78 66/89/84
f 23/24/47 24/74/46 75/93/85 74/28/75
f 24/73/44 25/32/43 76/64/80 75/94/86
f 34/45/50 35/80/49 72/92/87 71/31/77
f 35/79/52 36/29/51 73/38/76 72/91/88
f 48/47/60 49/84/59 66/89/84 67/36/78
f 49/84/62 50/35/61 65/27/73 66/89/83
f 37/25/57 38/81/56 69/90/82 70/34/74
f 38/81/54 39/41/53 68/65/79 69/90/81
f 55/49/65 56/86/64 72/91/88 73/38/76
f 56/86/67 57/37/66 71/66/77 72/91/87
f 62/51/70 63/88/69 75/93/86 76/40/80
f 63/88/72 64/39/71 74/28/75 75/93/85
s off
f 3/2/89 4/7/90 77/96/91 78/95/92
f 4/7/93 2/6/94 79/97/95 77/96/96
f 2/6/97 1/4/98 80/98/99 79/97/100
f 1/4/101 3/2/102 78/95/103 80/98/104
f 78/95/105 77/96/106 79/97/107 80/98/108
g default
v -4.566532 1.534287 8.652494
v -4.182635 1.534287 8.652494
v -4.566532 3.031637 8.652494
v -4.182635 3.031637 8.652494
v -4.566532 3.031637 8.268598
v -4.182635 3.031637 8.268598
v -4.566532 1.534287 8.268598
v -4.182635 1.534287 8.268598
vt 0.375000 0.000000
vt 0.625000 0.000000
vt 0.375000 0.250000
vt 0.625000 0.250000
vt 0.375000 0.500000
vt 0.625000 0.500000
vt 0.375000 0.750000
vt 0.625000 0.750000
vt 0.375000 1.000000
vt 0.625000 1.000000
vt 0.875000 0.000000
vt 0.875000 0.250000
vt 0.125000 0.000000
vt 0.125000 0.250000
vn 0.000000 0.000000 1.000000
vn 0.000000 0.000000 1.000000
vn 0.000000 0.000000 1.000000
vn 0.000000 0.000000 1.000000
vn 0.000000 1.000000 0.000000
vn 0.000000 1.000000 0.000000
vn 0.000000 1.000000 0.000000
vn 0.000000 1.000000 0.000000
vn 0.000000 0.000000 -1.000000
vn 0.000000 0.000000 -1.000000
vn 0.000000 0.000000 -1.000000
vn 0.000000 0.000000 -1.000000
vn 0.000000 -1.000000 0.000000
vn 0.000000 -1.000000 0.000000
vn 0.000000 -1.000000 0.000000
vn 0.000000 -1.000000 0.000000
vn 1.000000 0.000000 0.000000
vn 1.000000 0.000000 0.000000
vn 1.000000 0.000000 0.000000
vn 1.000000 0.000000 0.000000
vn -1.000000 0.000000 0.000000
vn -1.000000 0.000000 0.000000
vn -1.000000 0.000000 0.000000
vn -1.000000 0.000000 0.000000
s off
g pCube35
usemtl initialShadingGroup
f 81/99/109 82/100/110 84/102/111 83/101/112
f 83/101/113 84/102/114 86/104/115 85/103/116
f 85/103/117 86/104/118 88/106/119 87/105/120
f 87/105/121 88/106/122 82/108/123 81/107/124
f 82/100/125 88/109/126 86/110/127 84/102/128
f 87/111/129 81/99/130 83/101/131 85/112/132
g default
v -4.882007 0.129990 9.055522
v -3.882007 0.129990 9.055522
v -5.101433 1.285208 9.274947
v -3.662582 1.285208 9.274947
v -5.101433 1.285208 7.836096
v -3.662582 1.285208 7.836096
v -4.882007 0.129990 8.055522
v -3.882007 0.129990 8.055522
v -4.890083 1.285208 9.063596
v -3.873932 1.285208 9.063596
v -3.873932 1.285208 8.047446
v -4.890083 1.285208 8.047446
v -5.101433 2.091631 9.274947
v -3.662582 2.091631 9.274947
v -3.873932 2.091631 9.063596
v -4.890083 2.091631 9.063596
v -3.662582 2.091631 7.836096
v -3.873932 2.091631 8.047446
v -5.101433 2.091631 7.836096
v -4.890083 2.091631 8.047446
vt 0.375000 0.000000
vt 0.625000 0.000000
vt 0.375000 0.250000
vt 0.625000 0.250000
vt 0.375000 0.500000
vt 0.625000 0.500000
vt 0.375000 0.750000
vt 0.625000 0.750000
vt 0.375000 1.000000
vt 0.625000 1.000000
vt 0.875000 0.000000
vt 0.875000 0.250000
vt 0.125000 0.000000
vt 0.125000 0.250000
vt 0.375000 0.250000
vt 0.625000 0.250000
vt 0.625000 0.500000
vt 0.375000 0.500000
vt 0.375000 0.250000
vt 0.625000 0.250000
vt 0.625000 0.250000
vt 0.375000 0.250000
vt 0.625000 0.500000
vt 0.625000 0.500000
vt 0.375000 0.500000
vt 0.375000 0.500000
vn 0.000000 -0.186606 0.982435
vn 0.000000 -0.186606 0.982435
vn 0.000000 -0.186606 0.982435
vn 0.000000 -0.186606 0.982435
vn 0.000000 1.000000 0.000000
vn 0.000000 1.000000 0.000000
vn 0.000000 1.000000 0.000000
vn 0.000000 1.000000 0.000000
vn 0.000000 -0.186607 -0.982435
vn 0.000000 -0.186607 -0.982435
vn 0.000000 -0.186607 -0.982435
vn 0.000000 -0.186607 -0.982435
vn 0.000000 -1.000000 0.000000
vn 0.000000 -1.000000 0.000000
vn 0.000000 -1.000000 0.000000
vn 0.000000 -1.000000 0.000000
vn 0.982435 -0.186606 0.000000
vn 0.982435 -0.186606 0.000000
vn 0.982435 -0.186606 0.000000
vn 0.982435 -0.186606 0.000000
vn -0.982435 -0.186606 0.000000
vn -0.982435 -0.186606 0.000000
vn -0.982435 -0.186606 0.000000
vn -0.982435 -0.186606 0.000000
vn 0.000000 1.000000 -0.000001
vn 0.000000 1.000000 -0.000001
vn 0.000000 1.000000 -0.000001
vn 0.000000 1.000000 -0.000001
vn 0.000000 1.000000 0.000000
vn 0.000000 1.000000 0.000000
vn 0.000000 1.000000 0.000000
vn 0.000000 1.000000 0.000000
vn 0.000000 1.000000 0.000001
vn 0.000000 1.000000 0.000001
vn 0.000000 1.000000 0.000001
vn 0.000000 1.000000 0.000001
vn 0.000000 1.000000 0.000000
vn 0.000000 1.000000 0.000000
vn 0.000000 1.000000 0.000000
vn 0.000000 1.000000 0.000000
vn 0.000000 0.000000 1.000000
vn 0.000000 0.000000 1.000000
vn 0.000000 0.000000 1.000000
vn 0.000000 0.000000 1.000000
vn 0.000000 0.000000 -1.000000
vn 0.000000 0.000000 -1.000000
vn 0.000000 0.000000 -1.000000
vn 0.000000 0.000000 -1.000000
vn 1.000000 0.000000 0.000000
vn 1.000000 0.000000 0.000000
vn 1.000000 0.000000 0.000000
vn 1.000000 0.000000 0.000000
vn -1.000000 0.000000 0.000000
vn -1.000000 0.000000 0.000000
vn -1.000000 0.000000 0.000000
vn -1.000000 0.000000 0.000000
vn 0.000000 0.000000 -1.000000
vn 0.000000 0.000000 -1.000000
vn 0.000000 0.000000 -1.000000
vn 0.000000 0.000000 -1.000000
vn 0.000000 0.000000 1.000000
vn 0.000000 0.000000 1.000000
vn 0.000000 0.000000 1.000000
vn 0.000000 0.000000 1.000000
vn -1.000000 0.000000 0.000000
vn -1.000000 0.000000 0.000000
vn -1.000000 0.000000 0.000000
vn -1.000000 0.000000 0.000000
vn 1.000000 0.000000 0.000000
vn 1.000000 0.000000 0.000000
vn 1.000000 0.000000 0.000000
vn 1.000000 0.000000 0.000000
s off
g pCube34
usemtl initialShadingGroup
f 89/113/133 90/114/134 92/116/135 91/115/136
f 97/127/137 98/128/138 99/129/139 100/130/140
f 93/117/141 94/118/142 96/120/143 95/119/144
f 95/119/145 96/120/146 90/122/147 89/121/148
f 90/114/149 96/123/150 94/124/151 92/116/152
f 95/125/153 89/113/154 91/115/155 93/126/156
f 101/131/157 102/132/158 103/133/159 104/134/160
f 102/132/161 105/135/162 106/136/163 103/133/164
f 105/135/165 107/137/166 108/138/167 106/136/168
f 107/137/169 101/131/170 104/134/171 108/138/172
f 91/115/173 92/116/174 102/132/175 101/131/176
f 98/128/177 97/127/178 104/134/179 103/133/180
f 92/116/181 94/118/182 105/135/183 102/132/184
f 99/129/185 98/128/186 103/133/187 106/136/188
f 94/118/189 93/117/190 107/137/191 105/135/192
f 100/130/193 99/129/194 106/136/195 108/138/196
f 93/117/197 91/115/198 101/131/199 107/137/200
f 97/127/201 100/130/202 108/138/203 104/134/204
