# This file uses centimeters as units for non-parametric coordinates.

mtllib PlanterMod.mtl
g default
v -0.799112 0.055853 -5.379913
v 2.917869 0.055853 -5.379913
v -0.799112 1.055853 -5.379913
v 2.917869 1.055853 -5.379913
v -0.799112 1.055853 -7.112442
v 2.917869 1.055853 -7.112442
v -0.799112 0.055853 -7.112442
v 2.917869 0.055853 -7.112442
v -0.799112 0.842243 -5.379913
v 2.917869 0.842243 -5.379913
v 2.917869 0.842243 -7.112442
v -0.799112 0.842243 -7.112442
v -1.113909 0.824152 -5.233182
v 3.232666 0.824152 -5.233182
v 3.232666 1.073944 -5.233182
v -1.113909 1.073944 -5.233182
v -1.113909 1.073944 -7.259172
v 3.232666 1.073944 -7.259172
v 3.232666 0.824152 -7.259172
v -1.113909 0.824152 -7.259172
v -0.799112 1.282223 -5.379913
v 2.917869 1.282223 -5.379913
v -1.113909 1.300314 -5.233182
v 3.232666 1.300314 -5.233182
v -0.799112 1.282223 -7.112442
v 2.917869 1.282223 -7.112442
v 3.232666 1.300314 -7.259172
v -1.113909 1.300314 -7.259172
vt 0.375000 0.000000
vt 0.625000 0.000000
vt 0.375000 0.250000
vt 0.625000 0.250000
vt 0.375000 0.500000
vt 0.625000 0.500000
vt 0.375000 0.750000
vt 0.625000 0.750000
vt 0.375000 1.000000
vt 0.625000 1.000000
vt 0.875000 0.000000
vt 0.875000 0.250000
vt 0.125000 0.000000
vt 0.125000 0.250000
vt 0.375000 0.196598
vt 0.625000 0.196598
vt 0.625000 0.553402
vt 0.875000 0.196598
vt 0.125000 0.196598
vt 0.375000 0.553402
vt 0.375000 0.196598
vt 0.625000 0.196598
vt 0.625000 0.250000
vt 0.375000 0.250000
vt 0.375000 0.500000
vt 0.625000 0.500000
vt 0.625000 0.553402
vt 0.375000 0.553402
vt 0.875000 0.196598
vt 0.875000 0.250000
vt 0.125000 0.196598
vt 0.125000 0.250000
vt 0.625000 0.250000
vt 0.375000 0.250000
vt 0.375000 0.250000
vt 0.625000 0.250000
vt 0.375000 0.500000
vt 0.625000 0.500000
vt 0.625000 0.500000
vt 0.375000 0.500000
vt 0.875000 0.250000
vt 0.875000 0.250000
vt 0.125000 0.250000
vt 0.125000 0.250000
vn 0.000000 0.000000 1.000000
vn 0.000000 0.000000 1.000000
vn 0.000000 0.000000 1.000000
vn 0.000000 0.000000 1.000000
vn 0.000000 1.000000 0.000000
vn 0.000000 1.000000 0.000000
vn 0.000000 1.000000 0.000000
vn 0.000000 1.000000 0.000000
vn 0.000000 0.000000 -1.000000
vn 0.000000 0.000000 -1.000000
vn 0.000000 0.000000 -1.000000
vn 0.000000 0.000000 -1.000000
vn 0.000000 -1.000000 0.000000
vn 0.000000 -1.000000 0.000000
vn 0.000000 -1.000000 0.000000
vn 0.000000 -1.000000 0.000000
vn 1.000000 0.000000 0.000000
vn 1.000000 0.000000 0.000000
vn 1.000000 0.000000 0.000000
vn 1.000000 0.000000 0.000000
vn -1.000000 0.000000 0.000000
vn -1.000000 0.000000 0.000000
vn -1.000000 0.000000 0.000000
vn -1.000000 0.000000 0.000000
vn 0.000000 0.000000 1.000000
vn 0.000000 0.000000 1.000000
vn 0.000000 0.000000 1.000000
vn 0.000000 0.000000 1.000000
vn 1.000000 0.000000 0.000000
vn 1.000000 0.000000 0.000000
vn 1.000000 0.000000 0.000000
vn 1.000000 0.000000 0.000000
vn 0.000000 0.000000 -1.000000
vn 0.000000 0.000000 -1.000000
vn 0.000000 0.000000 -1.000000
vn 0.000000 0.000000 -1.000000
vn -1.000000 0.000000 0.000000
vn -1.000000 0.000000 0.000000
vn -1.000000 0.000000 0.000000
vn -1.000000 0.000000 0.000000
vn 0.000000 -0.992485 -0.122367
vn 0.000000 -0.992485 -0.122367
vn 0.000000 -0.992485 -0.122367
vn 0.000000 -0.992485 -0.122367
vn 0.000000 0.992485 -0.122367
vn 0.000000 0.992485 -0.122367
vn 0.000000 0.992485 -0.122367
vn 0.000000 0.992485 -0.122367
vn 0.000000 0.992485 0.122367
vn 0.000000 0.992485 0.122367
vn 0.000000 0.992485 0.122367
vn 0.000000 0.992485 0.122367
vn 0.000000 -0.992485 0.122367
vn 0.000000 -0.992485 0.122367
vn 0.000000 -0.992485 0.122367
vn 0.000000 -0.992485 0.122367
vn -0.057374 -0.998353 0.000000
vn -0.057374 -0.998353 0.000000
vn -0.057374 -0.998353 0.000000
vn -0.057374 -0.998353 0.000000
vn -0.057374 0.998353 0.000000
vn -0.057374 0.998353 0.000000
vn -0.057374 0.998353 0.000000
vn -0.057374 0.998353 0.000000
vn 0.057374 -0.998353 0.000000
vn 0.057374 -0.998353 0.000000
vn 0.057374 -0.998353 0.000000
vn 0.057374 -0.998353 0.000000
vn 0.057374 0.998353 0.000000
vn 0.057374 0.998353 0.000000
vn 0.057374 0.998353 0.000000
vn 0.057374 0.998353 0.000000
vn 0.000000 0.000000 -1.000000
vn 0.000000 0.000000 -1.000000
vn 0.000000 0.000000 -1.000000
vn 0.000000 0.000000 -1.000000
vn 0.000000 0.000000 1.000000
vn 0.000000 0.000000 1.000000
vn 0.000000 0.000000 1.000000
vn 0.000000 0.000000 1.000000
vn 0.000000 0.000000 1.000000
vn 0.000000 0.000000 1.000000
vn 0.000000 0.000000 1.000000
vn 0.000000 0.000000 1.000000
vn 0.000000 0.000000 -1.000000
vn 0.000000 0.000000 -1.000000
vn 0.000000 0.000000 -1.000000
vn 0.000000 0.000000 -1.000000
vn -1.000000 0.000000 0.000000
vn -1.000000 0.000000 0.000000
vn -1.000000 0.000000 0.000000
vn -1.000000 0.000000 0.000000
vn 1.000000 0.000000 0.000000
vn 1.000000 0.000000 0.000000
vn 1.000000 0.000000 0.000000
vn 1.000000 0.000000 0.000000
vn 1.000000 0.000000 0.000000
vn 1.000000 0.000000 0.000000
vn 1.000000 0.000000 0.000000
vn 1.000000 0.000000 0.000000
vn -1.000000 0.000000 0.000000
vn -1.000000 0.000000 0.000000
vn -1.000000 0.000000 0.000000
vn -1.000000 0.000000 0.000000
s off
g pCube7
usemtl initialShadingGroup
f 13/21/1 14/22/2 15/23/3 16/24/4
f 3/3/5 4/4/6 6/6/7 5/5/8
f 17/25/9 18/26/10 19/27/11 20/28/12
f 7/7/13 8/8/14 2/10/15 1/9/16
f 14/22/17 19/29/18 18/30/19 15/23/20
f 20/31/21 13/21/22 16/24/23 17/32/24
f 1/1/25 2/2/26 10/16/27 9/15/28
f 2/2/29 8/11/30 11/18/31 10/16/32
f 12/20/33 11/17/34 8/8/35 7/7/36
f 7/13/37 1/1/38 9/15/39 12/19/40
f 9/15/41 10/16/42 14/22/43 13/21/44
f 22/33/45 21/34/46 23/35/47 24/36/48
f 25/37/49 26/38/50 27/39/51 28/40/52
f 11/17/53 12/20/54 20/28/55 19/27/56
f 10/16/57 11/18/58 19/29/59 14/22/60
f 26/41/61 22/33/62 24/36/63 27/42/64
f 12/19/65 9/15/66 13/21/67 20/31/68
f 21/34/69 25/43/70 28/44/71 23/35/72
f 4/4/73 3/3/74 21/34/75 22/33/76
f 16/24/77 15/23/78 24/36/79 23/35/80
f 5/5/81 6/6/82 26/38/83 25/37/84
f 18/26/85 17/25/86 28/40/87 27/39/88
f 6/12/89 4/4/90 22/33/91 26/41/92
f 15/23/93 18/30/94 27/42/95 24/36/96
f 3/3/97 5/14/98 25/43/99 21/34/100
f 17/32/101 16/24/102 23/35/103 28/44/104
